<svg width="44" height="44" viewBox="0 0 44 44" fill="none" xmlns="http://www.w3.org/2000/svg">
<rect width="44" height="44" rx="14" fill="#F4F9FD"/>
<path fill-rule="evenodd" clip-rule="evenodd" d="M30.0417 14.2425C29.6017 13.8261 28.9132 13.8253 28.4723 14.2408L22.5008 19.8681L16.5292 14.2408C16.0883 13.8253 15.3998 13.8261 14.9598 14.2425L14.8944 14.3044C14.4173 14.756 14.4181 15.5157 14.8962 15.9662L20.7688 21.5002L14.8962 27.0343C14.4181 27.4848 14.4173 28.2445 14.8944 28.696L14.9598 28.758C15.3998 29.1744 16.0883 29.1752 16.5292 28.7597L22.5008 23.1324L28.4723 28.7597C28.9132 29.1752 29.6017 29.1744 30.0417 28.758L30.1071 28.696C30.5842 28.2445 30.5834 27.4848 30.1053 27.0343L24.2327 21.5002L30.1053 15.9662C30.5834 15.5157 30.5842 14.756 30.1071 14.3044L30.0417 14.2425Z" fill="#0A1629"/>
</svg>
