<svg width="134" height="134" viewBox="0 0 134 134" fill="none" xmlns="http://www.w3.org/2000/svg">
<circle cx="67" cy="67" r="67" fill="#F7F7F8"/>
<g opacity="0.7">
<path fill-rule="evenodd" clip-rule="evenodd" d="M75.16 58.7467C75.22 58.8493 75.325 58.9225 75.46 58.9225C79.06 58.9225 82 61.794 82 65.3101V74.0124C82 77.5285 79.06 80.4 75.46 80.4H58.54C54.925 80.4 52 77.5285 52 74.0124V65.3101C52 61.794 54.925 58.9225 58.54 58.9225C58.66 58.9225 58.78 58.8639 58.825 58.7467L58.915 58.5709C58.9667 58.4645 59.0198 58.3552 59.0737 58.2442C59.4574 57.4539 59.8819 56.5796 60.145 56.0657C60.835 54.7472 62.005 54.0147 63.46 54H70.525C71.98 54.0147 73.165 54.7472 73.855 56.0657C74.0912 56.5272 74.4511 57.2705 74.798 57.9869C74.8697 58.1348 74.9407 58.2815 75.01 58.4244L75.16 58.7467ZM74.0645 64.372C74.0645 65.1045 74.6645 65.6905 75.4145 65.6905C76.1645 65.6905 76.7795 65.1045 76.7795 64.372C76.7795 63.6395 76.1645 63.0388 75.4145 63.0388C74.6645 63.0388 74.0645 63.6395 74.0645 64.372ZM64.4039 66.6432C65.1089 65.9546 66.0239 65.5884 66.9989 65.5884C67.9739 65.5884 68.8889 65.9546 69.5789 66.6286C70.2689 67.3025 70.6439 68.1961 70.6439 69.1484C70.629 71.1116 69.0089 72.7085 66.9989 72.7085C66.0239 72.7085 65.1089 72.3422 64.4189 71.6683C63.7289 70.9944 63.3539 70.1007 63.3539 69.1484V69.1338C63.3389 68.2108 63.7139 67.3171 64.4039 66.6432ZM71.1557 73.2213C70.0907 74.2615 68.6207 74.9061 67.0007 74.9061C65.4257 74.9061 63.9557 74.3054 62.8307 73.2213C61.7207 72.1225 61.1057 70.6868 61.1057 69.1485C61.0907 67.6248 61.7057 66.1891 62.8157 65.0903C63.9407 63.9915 65.4257 63.3909 67.0007 63.3909C68.5757 63.3909 70.0607 63.9915 71.1707 65.0757C72.2807 66.1744 72.8957 67.6248 72.8957 69.1485C72.8807 70.7454 72.2207 72.1811 71.1557 73.2213Z" fill="#030229"/>
</g>
</svg>
