<svg width="10" height="18" viewBox="0 0 10 18" fill="none" xmlns="http://www.w3.org/2000/svg">
<path d="M0.787397 9.58679H2.74037V17.7097C2.74037 17.8701 2.86898 18 3.02773 18H6.33908C6.49783 18 6.62645 17.8701 6.62645 17.7097V9.62508H8.87158C9.01756 9.62508 9.1404 9.51441 9.15707 9.36791L9.49805 6.37748C9.50741 6.29522 9.48163 6.21281 9.42713 6.15108C9.3726 6.08931 9.29455 6.05394 9.21264 6.05394H6.62658V4.17937C6.62658 3.61431 6.92773 3.32775 7.5218 3.32775C7.60646 3.32775 9.21264 3.32775 9.21264 3.32775C9.37139 3.32775 9.5 3.19774 9.5 3.03743V0.292465C9.5 0.132082 9.37139 0.00214453 9.21264 0.00214453H6.88238C6.86596 0.00133594 6.82946 0 6.77566 0C6.37134 0 4.96595 0.0801913 3.85579 1.11199C2.62574 2.25541 2.79674 3.62443 2.8376 3.86181V6.05387H0.787363C0.628614 6.05387 0.5 6.18381 0.5 6.34419V9.29644C0.500035 9.45679 0.628648 9.58679 0.787397 9.58679Z" fill="#385C8E"/>
</svg>
