<svg width="13" height="13" viewBox="0 0 13 13" fill="none" xmlns="http://www.w3.org/2000/svg">
<path fill-rule="evenodd" clip-rule="evenodd" d="M3.25 1.08301H9.25851C9.65649 1.08301 10.0406 1.22906 10.3381 1.49347C11.0089 2.08971 11.0693 3.11683 10.473 3.7876L7.87925 6.70497V10.1635C7.87925 10.3237 7.84941 10.4822 7.7916 10.6309L7.74304 10.7405C7.42437 11.3778 6.64936 11.6362 6.01201 11.3175L5.52753 11.0752C4.97701 10.8 4.62925 10.2373 4.62925 9.62181V6.70605L2.03546 3.7876C1.79749 3.51989 1.65539 3.18196 1.62935 2.82692L1.625 2.70801C1.625 1.81055 2.35254 1.08301 3.25 1.08301ZM9.25851 2.16634H3.25C2.95085 2.16634 2.70833 2.40885 2.70833 2.70801C2.70833 2.84067 2.75702 2.96872 2.84515 3.06787L5.57577 6.13981C5.6639 6.23896 5.71259 6.36701 5.71259 6.49967V9.6218C5.71259 9.82697 5.8285 10.0145 6.01201 10.1063L6.49649 10.3485C6.5987 10.3996 6.72297 10.3582 6.77408 10.256C6.78844 10.2273 6.79592 10.1956 6.79592 10.1635V6.49967C6.79592 6.36701 6.8446 6.23896 6.93274 6.13981L9.66335 3.06787C9.8621 2.84428 9.84196 2.50191 9.61837 2.30316C9.51922 2.21503 9.39117 2.16634 9.25851 2.16634Z" fill="#0A1629"/>
</svg>
