<svg width="19" height="18" viewBox="0 0 19 18" fill="none" xmlns="http://www.w3.org/2000/svg">
<path d="M18.355 7.33397C18.435 7.33397 18.4999 7.39884 18.4999 7.47885V8.99995C18.4999 9.56926 18.447 10.1259 18.3456 10.6659C17.561 14.8604 13.8658 18.0302 9.43648 17.9996C4.4665 17.9654 0.489019 13.9497 0.500023 8.97966C0.510956 4.01855 4.53625 0 9.49994 0C11.9318 0 14.1382 0.964752 15.7582 2.53187C15.8167 2.58843 15.8182 2.68167 15.7607 2.73918L13.6087 4.89112C13.5533 4.94653 13.4638 4.94797 13.407 4.89393C12.3903 3.92612 11.0146 3.33195 9.49994 3.33195C6.37207 3.33195 3.85331 5.83281 3.83208 8.96061C3.81074 12.1089 6.3566 14.6679 9.49994 14.6679C12.0503 14.6679 14.2074 12.9831 14.9187 10.6659H9.64481C9.5648 10.6659 9.49994 10.6011 9.49994 10.521V7.47882C9.49994 7.3988 9.5648 7.33394 9.64481 7.33394H18.355V7.33397Z" fill="#2196F3"/>
<path d="M18.355 7.33447H17.2685C17.3485 7.33447 17.4133 7.39934 17.4133 7.47935V9.00045C17.4133 9.56976 17.3605 10.1264 17.259 10.6664C16.5105 14.668 13.1129 17.7369 8.95605 17.9842C9.1151 17.9935 9.2752 17.999 9.43643 18.0002C13.8657 18.0307 17.561 14.8608 18.3455 10.6664C18.447 10.1264 18.4998 9.56976 18.4998 9.00045V7.47932C18.4998 7.39934 18.435 7.33447 18.355 7.33447Z" fill="#1E88E5"/>
<path d="M4.35148 6.62628L1.61816 4.65136C3.1516 1.87786 6.10654 0 9.49973 0C11.9316 0 14.138 0.964752 15.758 2.53187C15.8165 2.58843 15.818 2.68167 15.7605 2.73918L13.6085 4.89112C13.5532 4.94642 13.4637 4.94814 13.4071 4.89421C12.3903 3.92623 11.0146 3.33198 9.49973 3.33198C7.21698 3.33198 5.24929 4.68141 4.35148 6.62628Z" fill="#F44336"/>
<path d="M3.5625 6.05608L4.35158 6.62621C5.17106 4.85104 6.88204 3.57255 8.91019 3.36285C8.92545 3.36119 8.94011 3.35919 8.95565 3.35771C8.77716 3.34077 8.59628 3.33191 8.41333 3.33191C6.35118 3.33191 4.55401 4.41904 3.5625 6.05608Z" fill="#E53935"/>
<path d="M14.6721 2.53187C14.7306 2.58843 14.7321 2.68167 14.6746 2.73922L12.9279 4.48588C13.0953 4.61314 13.2555 4.74927 13.4075 4.89397C13.4642 4.948 13.5538 4.94656 13.6092 4.89116L15.7611 2.73922C15.8186 2.68167 15.8171 2.58847 15.7586 2.53187C14.1387 0.964752 11.9322 0 9.50037 0C9.31787 0 9.13682 0.006082 8.95703 0.0168046C11.1733 0.148816 13.1737 1.08231 14.6721 2.53187Z" fill="#E53935"/>
<path d="M16.1017 15.1164C14.4582 16.8899 12.1084 18 9.49968 18C5.97613 18 2.92557 15.9751 1.44824 13.0252L4.23875 11.1129C5.07614 13.1965 7.11624 14.668 9.49968 14.668C10.9954 14.668 12.3558 14.0885 13.3684 13.1418L16.1017 15.1164Z" fill="#4CAF50"/>
<path d="M4.23888 11.1129L3.41602 11.6768C4.37173 13.4572 6.25114 14.668 8.41327 14.668C8.59612 14.668 8.77686 14.659 8.95527 14.6421C6.80903 14.4375 5.01168 13.0359 4.23888 11.1129Z" fill="#43A047"/>
<path d="M9.4999 18.0002C12.1086 18.0002 14.4584 16.8901 16.1019 15.1166L15.4325 14.6329C13.8892 16.5535 11.5742 17.8276 8.95801 17.9838C9.1373 17.9945 9.31794 18.0002 9.4999 18.0002Z" fill="#43A047"/>
<path d="M3.83198 9.00069C3.83198 9.74748 3.97648 10.4606 4.23906 11.1136L1.44851 13.0258C0.841541 11.8148 0.5 10.4476 0.5 9.00069C0.5 7.42345 0.90563 5.94106 1.61838 4.6521L4.3517 6.62703C4.01814 7.34881 3.83198 8.15322 3.83198 9.00069Z" fill="#FFC107"/>
<path d="M3.41683 11.6771L4.23969 11.1132C3.97711 10.4602 3.83262 9.7471 3.83262 9.00031C3.83262 8.15284 4.01877 7.34843 4.35233 6.62664L3.56325 6.05652C3.05085 6.90255 2.75347 7.89532 2.74623 8.96101C2.73955 9.94376 2.98307 10.8691 3.41683 11.6771Z" fill="#FFB300"/>
</svg>
