<svg xmlns="http://www.w3.org/2000/svg" width="19" height="8" viewBox="0 0 19 8" fill="black">
  <path d="M18.4627 3.56543C18.7388 3.56543 18.9627 3.78929 18.9627 4.06543C18.9627 4.34157 18.7388 4.56543 18.4627 4.56543V3.56543ZM0.646447 4.41898C0.451184 4.22372 0.451184 3.90714 0.646447 3.71188L3.82843 0.529896C4.02369 0.334634 4.34027 0.334634 4.53553 0.529896C4.7308 0.725158 4.7308 1.04174 4.53553 1.237L1.70711 4.06543L4.53553 6.89386C4.7308 7.08912 4.7308 7.4057 4.53553 7.60096C4.34027 7.79623 4.02369 7.79623 3.82843 7.60096L0.646447 4.41898ZM18.4627 4.56543H1V3.56543H18.4627V4.56543Z" fill="#000"/>
</svg>