<svg xmlns="http://www.w3.org/2000/svg" width="20" height="8" viewBox="0 0 20 8" fill="#000">
  <path d="M1.45919 3.56543C1.18305 3.56543 0.959188 3.78929 0.959188 4.06543C0.959188 4.34157 1.18305 4.56543 1.45919 4.56543V3.56543ZM19.2754 4.41898C19.4707 4.22372 19.4707 3.90714 19.2754 3.71188L16.0934 0.529896C15.8982 0.334634 15.5816 0.334634 15.3863 0.529896C15.1911 0.725158 15.1911 1.04174 15.3863 1.237L18.2148 4.06543L15.3863 6.89386C15.1911 7.08912 15.1911 7.4057 15.3863 7.60096C15.5816 7.79623 15.8982 7.79623 16.0934 7.60096L19.2754 4.41898ZM1.45919 4.56543H18.9219V3.56543H1.45919V4.56543Z" fill="#000"/>
</svg>