<svg width="24" height="24" viewBox="0 0 16 15" fill="none" xmlns="http://www.w3.org/2000/svg">
<path d="M12.0119 5.13798C11.63 4.26049 10.971 3.53241 10.1357 3.06531C9.30045 2.59822 8.33507 2.41788 7.38752 2.55193C6.43996 2.68598 5.56249 3.12702 4.88957 3.80747C4.21665 4.48792 3.78541 5.37024 3.66191 6.31923C3.06603 6.46194 2.5433 6.8185 2.193 7.32123C1.8427 7.82395 1.68922 8.43781 1.7617 9.04624C1.83419 9.65467 2.1276 10.2153 2.5862 10.6216C3.04481 11.028 3.63668 11.2518 4.24941 11.2505C4.41517 11.2505 4.57414 11.1846 4.69135 11.0674C4.80856 10.9502 4.87441 10.7912 4.87441 10.6255C4.87441 10.4597 4.80856 10.3008 4.69135 10.1835C4.57414 10.0663 4.41517 10.0005 4.24941 10.0005C3.91789 10.0005 3.59995 9.86879 3.36553 9.63437C3.13111 9.39995 2.99941 9.082 2.99941 8.75048C2.99941 8.41896 3.13111 8.10102 3.36553 7.8666C3.59995 7.63218 3.91789 7.50048 4.24941 7.50048C4.41517 7.50048 4.57414 7.43464 4.69135 7.31743C4.80856 7.20022 4.87441 7.04124 4.87441 6.87548C4.87601 6.13628 5.13959 5.42158 5.61833 4.85835C6.09707 4.29512 6.75997 3.91983 7.48926 3.79915C8.21854 3.67848 8.96699 3.82024 9.60164 4.19924C10.2363 4.57824 10.716 5.16995 10.9557 5.86923C10.9914 5.97663 11.0556 6.07232 11.1415 6.14607C11.2273 6.21982 11.3316 6.26887 11.4432 6.28798C11.8595 6.36665 12.2368 6.58399 12.5138 6.90457C12.7908 7.22515 12.951 7.63008 12.9684 8.05338C12.9858 8.47669 12.8593 8.8934 12.6096 9.23563C12.3599 9.57786 12.0016 9.82542 11.5932 9.93798C11.4324 9.97942 11.2946 10.083 11.2102 10.226C11.1259 10.369 11.1017 10.5397 11.1432 10.7005C11.1846 10.8613 11.2882 10.999 11.4312 11.0834C11.5742 11.1678 11.7449 11.1919 11.9057 11.1505C12.5634 10.9767 13.1465 10.593 13.5663 10.0576C13.9861 9.52232 14.2198 8.86461 14.2318 8.1844C14.2438 7.50419 14.0335 6.83864 13.6329 6.28881C13.2322 5.73898 12.6631 5.33492 12.0119 5.13798ZM8.44316 6.43173C8.38372 6.37483 8.31363 6.33023 8.23691 6.30048C8.08475 6.23797 7.91408 6.23797 7.76191 6.30048C7.68519 6.33023 7.6151 6.37483 7.55566 6.43173L5.68066 8.30673C5.56297 8.42442 5.49686 8.58405 5.49686 8.75048C5.49686 8.91692 5.56297 9.07654 5.68066 9.19423C5.79835 9.31192 5.95797 9.37804 6.12441 9.37804C6.29085 9.37804 6.45047 9.31192 6.56816 9.19423L7.37441 8.38173V11.8755C7.37441 12.0412 7.44026 12.2002 7.55747 12.3174C7.67468 12.4346 7.83365 12.5005 7.99941 12.5005C8.16517 12.5005 8.32414 12.4346 8.44135 12.3174C8.55856 12.2002 8.62441 12.0412 8.62441 11.8755V8.38173L9.43066 9.19423C9.48876 9.25281 9.55789 9.29931 9.63405 9.33104C9.71021 9.36277 9.79191 9.37911 9.87441 9.37911C9.95692 9.37911 10.0386 9.36277 10.1148 9.33104C10.1909 9.29931 10.2601 9.25281 10.3182 9.19423C10.3767 9.13613 10.4232 9.06701 10.455 8.99084C10.4867 8.91468 10.503 8.83299 10.503 8.75048C10.503 8.66798 10.4867 8.58629 10.455 8.51012C10.4232 8.43396 10.3767 8.36484 10.3182 8.30673L8.44316 6.43173Z" fill="#444291"/>
</svg>
